<?xml version="1.0" encoding="utf-8"?>
<svg class="bg_cabin" version="1.1" xmlns="http://www.w3.org/2000/svg" xmlns:xlink="http://www.w3.org/1999/xlink" x="0px" y="0px" viewBox="0 0 480 480" style="enable-background:new 0 0 480 480;" xml:space="preserve">
	<style type="text/css">
		.st0{fill:url(#SVGID_1_);}
	</style>
	<linearGradient id="SVGID_1_" gradientUnits="userSpaceOnUse" x1="240" y1="345.6239" x2="240" y2="5.2391">
		<stop  offset="0" style="stop-color:#000000;stop-opacity:0"/>
		<stop  offset="1" style="stop-color:#000000;stop-opacity:0.65"/>
	</linearGradient>
	<path class="st0" d="M436.7,126l-19.3-9.6V45c0-0.5,0.5-0.9,1.1-0.9h9.1c1.5,0,2.9-0.4,4-1.1c1.9-1.3,3.2-3.4,3.1-5.6V18.7
		c0-7.7-6-16.8-24.9-16.8h-73.7c-17.7,0-24.2,9.1-24.2,16.8v18.6c0,2.3,1.2,4.4,3.3,5.7c1.1,0.7,2.5,1.1,3.9,1.1h9.2
		c0.6,0,1.1,0.4,1.1,0.9v29.9l-46.5-22c-25.8-12.2-57.2-12.2-82.9,0L44,129.2C16.9,142,0,166.3,0,192.6c0,21.1,16.7,37.2,37.7,42.3
		h15.2v104.5c0,5.8,5.5,10.5,12.4,10.5h347.2c6.8,0,12.4-4.7,12.4-10.5V235h17.4c21-5.1,37.7-30.1,37.7-51.1
		C480,157.4,463.8,138.8,436.7,126z"/>
</svg>
