<?xml version="1.0" encoding="utf-8"?>
<svg class="bg_forest" version="1.1" xmlns="http://www.w3.org/2000/svg" xmlns:xlink="http://www.w3.org/1999/xlink" x="0px" y="0px" viewBox="0 0 120.3 82.6" style="enable-background:new 0 0 120.3 82.6;" xml:space="preserve">
	<style type="text/css">
		.bg_forest_linearGradient-1{opacity:0.5;fill:url(#tr-5_00000041289505679802345910000015665060205189362869_);}
		.bg_forest_linearGradient-2{opacity:0.5;fill:url(#tr-4_00000066517046143261828080000011715273144767674533_);}
		.bg_forest_linearGradient-3{opacity:0.5;fill:url(#tr-3_00000127034475111050086340000001486749353138071938_);}
		.bg_forest_linearGradient-4{opacity:0.5;fill:url(#tr-2_00000116237739904293742430000001328632794894315939_);}
		.bg_forest_linearGradient-5{opacity:0.5;fill:url(#tr-1_00000121994142844901013580000007131514141680535200_);}
	</style>
	<linearGradient id="tr-5_00000068645600354592005340000004543569384719305909_" gradientUnits="userSpaceOnUse" x1="-97.6557" y1="61.7727" x2="-97.6557" y2="13.2893" gradientTransform="matrix(-1 0 0 1 15.1219 0)">
		<stop offset="0" style="stop-color:#000000;stop-opacity:0"/>
		<stop offset="8.962709e-02" style="stop-color:#000000;stop-opacity:8.962709e-02"/>
		<stop offset="1" style="stop-color:#000000"/>
	</linearGradient>
	<path id="tr-5" style="opacity:0.5;fill:url(#tr-5_00000068645600354592005340000004543569384719305909_);" d="M105.2,35.8
		c1.6-0.6,3.2-1.7,4.5-3.5l4.7-7.9h-3.6c1.1-0.3,2.1-1.1,2.9-2.2l6.6-11l0,0l0,0l0,0l0,0h0v52.1h-2.5c-0.6,0-1.1-0.5-1-1.1l1-13.1
		h-1.7h0l0,0h-8.3l-2.2-4.4l7.2,0c-1.8-0.7-3.5-2-5-4l2.8-4.8L105.2,35.8L105.2,35.8z"/>
	<linearGradient id="tr-4_00000095315432004387663260000008749686515347291071_" gradientUnits="userSpaceOnUse" x1="93.4399" y1="81.5955" x2="93.4399" y2="7.981">
		<stop  offset="0" style="stop-color:#000000;stop-opacity:0"/>
		<stop  offset="8.962709e-02" style="stop-color:#000000;stop-opacity:8.962709e-02"/>
		<stop  offset="1" style="stop-color:#000000"/>
	</linearGradient>
	<path id="tr-4" style="opacity:0.5;fill:url(#tr-4_00000095315432004387663260000008749686515347291071_);" d="M90,82.6h7
		c0.6,0,1.1-0.5,1-1.1l-1.3-16.7h2.2h0l0,0H120c0,0,0,0,0,0h0c-1.9-0.7-3.7-2-5.3-3.7c-0.3-0.4-0.7-0.7-1-1.1
		c-0.6-0.8-1.3-1.7-1.8-2.7l-6.2-12.6l7.2,0c-2.2-0.8-4.2-2.6-5.9-5.5l-5.9-12.1h4.5c-1.3-0.5-2.6-1.6-3.7-3.4L93.4,6.8l0,0l0,0l0,0
		l0,0h0l-8.3,16.9c-1.1,1.8-2.3,2.9-3.7,3.4h0h4.5L80,39.2c-1.7,2.8-3.8,4.6-5.9,5.5l7.2,0L75,57.3c-2.3,3.9-5.2,6.4-8.2,7.5h10.4h13
		l-1.3,16.7C88.8,82.1,89.3,82.6,90,82.6z"/>
	<linearGradient id="tr-3_00000116221647589632107760000015989881938950493881_" gradientUnits="userSpaceOnUse" x1="60.1739" y1="65.7748" x2="60.1739" y2="18.1928">
		<stop  offset="0" style="stop-color:#000000;stop-opacity:0"/>
		<stop  offset="8.962709e-02" style="stop-color:#000000;stop-opacity:8.962709e-02"/>
		<stop  offset="1" style="stop-color:#000000"/>
	</linearGradient>
	<path id="tr-3_00000178180825189568879040000013655608024427494025_" style="opacity:0.5;fill:url(#tr-3_00000116221647589632107760000015989881938950493881_);" d="
		M77,51.2c-0.3-0.2-0.5-0.5-0.8-0.7c-0.5-0.5-1-1-1.5-1.7L69.8,41l5.7,0c-1.7-0.5-3.4-1.6-4.7-3.4l-4.7-7.5h3.6
		c-1.1-0.3-2.1-1-2.9-2.1l-6.6-10.5l0,0l0,0l0,0l0,0h0l-6.6,10.5c-0.8,1.1-1.8,1.8-2.9,2.1h0h3.6l-4.7,7.5c-1.3,1.8-3,2.9-4.7,3.4
		l5.7,0l-4.9,7.9c-0.9,1.2-1.9,2.2-3,2.9l0.9,1.7h3.9h10.3l-1,12.5c-0.1,0.6,0.4,1.1,1,1.1h4.9c0.6,0,1.1-0.5,1-1.1l-1-12.5h1.7h0
		l0,0h12.4l0.9-1.7C77.5,51.6,77.2,51.4,77,51.2z"/>
	<linearGradient id="tr-2_00000044899526950155350890000000926370147383157669_" gradientUnits="userSpaceOnUse" x1="26.9074" y1="81.5955" x2="26.9074" y2="7.981">
		<stop  offset="0" style="stop-color:#000000;stop-opacity:0"/>
		<stop  offset="7.646453e-02" style="stop-color:#000000;stop-opacity:7.646453e-02"/>
		<stop  offset="1" style="stop-color:#000000"/>
	</linearGradient>
	<path id="tr-2_00000148660673417113839030000003767359160015989653_" style="opacity:0.5;fill:url(#tr-2_00000044899526950155350890000000926370147383157669_);" d="
		M23.4,82.6h7c0.6,0,1.1-0.5,1-1.1l-1.3-16.7h2.2h0l0,0h21.2c0,0,0,0,0,0h0c-1.9-0.7-3.7-2-5.3-3.7c-0.3-0.4-0.7-0.7-1-1.1
		c-0.6-0.8-1.3-1.7-1.8-2.7l-6.2-12.6l7.2,0c-2.2-0.8-4.2-2.6-5.9-5.5l-5.9-12.1h4.5c-1.3-0.5-2.6-1.6-3.7-3.4L26.9,6.8l0,0l0,0l0,0
		l0,0h0l-8.3,16.9c-1.1,1.8-2.3,2.9-3.7,3.4h0h4.5l-5.9,12.1c-1.7,2.8-3.8,4.6-5.9,5.5l7.2,0L8.5,57.3c-2.3,3.9-5.2,6.4-8.2,7.5h10.4
		h13l-1.3,16.7C22.3,82.1,22.8,82.6,23.4,82.6z"/>
	<linearGradient id="tr-1_00000019662917834054645910000014155545707006269320_" gradientUnits="userSpaceOnUse" x1="7.561" y1="61.7734" x2="7.561" y2="13.29">
		<stop  offset="0" style="stop-color:#000000;stop-opacity:0"/>
		<stop  offset="8.962709e-02" style="stop-color:#000000;stop-opacity:8.962709e-02"/>
		<stop  offset="1" style="stop-color:#000000"/>
	</linearGradient>
	<path id="tr-1" style="opacity:0.5;fill:url(#tr-1_00000019662917834054645910000014155545707006269320_);" d="M15.1,35.8
		c-1.6-0.6-3.2-1.7-4.5-3.5l-4.7-7.9h3.6c-1.1-0.3-2.1-1.1-2.9-2.2L0,11.1l0,0l0,0l0,0l0,0h0v52.1h2.5c0.6,0,1.1-0.5,1-1.1L2.6,49
		h1.7h0l0,0h8.3l2.2-4.4l-7.2,0c1.8-0.7,3.5-2,5-4l-2.8-4.8L15.1,35.8L15.1,35.8z"/>
</svg>
