<?xml version="1.0" encoding="utf-8"?>
<svg class="bg_mountain" version="1.1" xmlns:rdf="http://www.w3.org/1999/02/22-rdf-syntax-ns#" xmlns:svg="http://www.w3.org/2000/svg" xmlns:cc="http://creativecommons.org/ns#" xmlns:dc="http://purl.org/dc/elements/1.1/" xmlns="http://www.w3.org/2000/svg" xmlns:xlink="http://www.w3.org/1999/xlink" x="0px" y="0px" viewBox="0 0 120 120" style="enable-background:new 0 0 120 120;" xml:space="preserve">
<style type="text/css">
	.bg_mountain_path-1{fill:url(#SVGID_1_);}
</style>
<linearGradient id="SVGID_1_" gradientUnits="userSpaceOnUse" x1="60" y1="124.6537" x2="60" y2="23.0935">
	<stop offset=".175" style="stop-color:#00000000"/>
	<stop offset="1" style="stop-color:#00000040"/>
</linearGradient>
<path class="bg_mountain_path-1" d="M100.1,26l-4.3,9.7L90.6,35v-1.2c0.9,0,1.8-0.2,2-0.5c0.2-0.4-0.4-1.7-1-2.7c0,0,0.1,0,0.1-0.1
	c0.2-0.4-0.9-2.3-1.3-2.3s-1.5,1.9-1.3,2.3c0,0,0.1,0,0.1,0.1c-0.7,1-1.3,2.3-1,2.7c0.2,0.3,1.1,0.5,2,0.5V35l-9.4-1.3v-1.8
	c1.7,0,3.3-0.3,3.6-0.9c0.4-0.7-0.6-3.1-1.8-4.9c0.1,0,0.1-0.1,0.1-0.1c0.4-0.7-1.6-4.1-2.4-4.1s-2.8,3.4-2.4,4.1l0.1,0.1
	c-1.2,1.8-2.2,4.2-1.8,4.9c0.3,0.5,1.9,0.8,3.6,0.9v1.7l-1.5-0.2l-7.6,4.1L57.4,68.9l-1.8,0.5v-2.3c1.1,0,2.2-0.2,2.4-0.6
	c0.3-0.5-0.4-2-1.2-3.2c0,0,0.1,0,0.1-0.1c0.3-0.5-1-2.7-1.5-2.7s-1.8,2.2-1.5,2.7c0,0,0.1,0,0.1,0.1c-0.8,1.2-1.5,2.7-1.2,3.2
	c0.2,0.4,1.3,0.6,2.4,0.6v2.5l-4.1,1.2l-2.1-2h-2.2l-2-2.9l-2.5,0.7l-1.7-1.4l-1.4,2l0.2,2.6L37,70l-0.5,2.5l-1,1.3l1.4,1.2L34,75.9
	L0,120h120V24C120,24,112.3,24.9,100.1,26z"/>
</svg>
