<?xml version="1.0" encoding="utf-8"?>
<svg class="bg_tree" version="1.1" xmlns="http://www.w3.org/2000/svg" xmlns:xlink="http://www.w3.org/1999/xlink" x="0px" y="0px" viewBox="0 0 360 360" style="enable-background:new 0 0 360 360;" xml:space="preserve">
	<polygon points="322.7,193 348.6,163.9 338.3,151.1 294.5,193.6 247.6,164 194.1,212.8 192.2,202.7 209.7,125.4 291,96.1 
		321.5,124.9 333.8,115.9 296.9,70.5 260.1,79.5 266.5,24.4 255.3,19.7 229.5,86.9 200.2,94.1 146.7,64.6 135.4,7.8 120.5,9.3 
		125.8,82.1 179.1,118.8 164.2,175.1 101.8,131.7 80.2,148 50.8,127.6 70.7,90.8 64,87.2 34.2,116.1 19.1,105.7 11.5,112.9 
		58.8,164.2 10.5,200.7 19.1,210.6 103,164.3 157.7,208.1 154.2,360 222.6,360 214.2,316.9 271.7,276.1 259.3,263.9 208.2,285.5 
		203.4,261 251.6,199.8 297.1,221.6 309.9,207.3 344.6,233.1 353,222.5 "/>
</svg>
